<?xml version="1.0" encoding="UTF-8" standalone="no"?>
<svg
   height="290.30mm"
   viewBox="0.0 0.0 231.90 290.30"
   width="231.90mm"
   version="1.1"
   id="svg7"
   sodipodi:docname="robot.svg"
   inkscape:version="1.3.2 (091e20e, 2023-11-25, custom)"
   xmlns:inkscape="http://www.inkscape.org/namespaces/inkscape"
   xmlns:sodipodi="http://sodipodi.sourceforge.net/DTD/sodipodi-0.dtd"
   xmlns="http://www.w3.org/2000/svg"
   xmlns:svg="http://www.w3.org/2000/svg"
   xmlns:rdf="http://www.w3.org/1999/02/22-rdf-syntax-ns#"
   xmlns:cc="http://creativecommons.org/ns#"
   xmlns:dc="http://purl.org/dc/elements/1.1/">
  <defs
     id="defs7" />
  <sodipodi:namedview
     id="namedview7"
     pagecolor="#ffffff"
     bordercolor="#000000"
     borderopacity="0.25"
     inkscape:showpageshadow="2"
     inkscape:pageopacity="0.0"
     inkscape:pagecheckerboard="0"
     inkscape:deskcolor="#d1d1d1"
     inkscape:document-units="mm"
     showguides="true"
     inkscape:zoom="0.70710678"
     inkscape:cx="374.76659"
     inkscape:cy="406.5864"
     inkscape:window-width="1366"
     inkscape:window-height="705"
     inkscape:window-x="-8"
     inkscape:window-y="-8"
     inkscape:window-maximized="1"
     inkscape:current-layer="svg7" />
  <!--
ClosedBox - Fully closed box


This box is more of a building block than a finished item.
Use a vector graphics program (like Inkscape) to add holes or adjust the base
plate.

See BasedBox for variant with a base.


Created with Boxes.py (https://festi.info/boxes.py)
Creation date: 2024-05-16 10:28:36
Command line (remove spaces between dashes): boxes ClosedBox - -x=95 - -y=115 - -h=70
Url: http://boxes.hackerspace-bamberg.de/boxes.py/ClosedBox?FingerJoint_angle=90.0&FingerJoint_style=rectangular&FingerJoint_surroundingspaces=2.0&FingerJoint_bottom_lip=0.0&FingerJoint_edge_width=1.0&FingerJoint_extra_length=0.0&FingerJoint_finger=2.0&FingerJoint_play=0.0&FingerJoint_space=2.0&FingerJoint_width=1.0&x=95&y=115&h=70&outside=0&outside=1&thickness=3.0&format=svg&tabs=0.0&qr_code=0&debug=0&labels=0&labels=1&reference=100.0&inner_corners=loop&burn=0.1&language=fr&render=1
Url short: http://boxes.hackerspace-bamberg.de/boxes.py/ClosedBox?x=95&y=115&h=70
SettingsUrl: http://boxes.hackerspace-bamberg.de/boxes.py/ClosedBox?FingerJoint_angle=90.0&FingerJoint_style=rectangular&FingerJoint_surroundingspaces=2.0&FingerJoint_bottom_lip=0.0&FingerJoint_edge_width=1.0&FingerJoint_extra_length=0.0&FingerJoint_finger=2.0&FingerJoint_play=0.0&FingerJoint_space=2.0&FingerJoint_width=1.0&x=95&y=115&h=70&outside=0&outside=1&thickness=3.0&format=svg&tabs=0.0&qr_code=0&debug=0&labels=0&labels=1&reference=100.0&inner_corners=loop&burn=0.1&language=fr
SettingsUrl short: http://boxes.hackerspace-bamberg.de/boxes.py/ClosedBox?x=95&y=115&h=70
-->
  <title
     id="title1">ClosedBox</title>
  <metadata
     id="metadata1">
    <rdf:RDF>
      <cc:Work>
        <dc:title>ClosedBox</dc:title>
        <dc:date>2024-05-16 10:28:36</dc:date>
        <dc:source>http://boxes.hackerspace-bamberg.de/boxes.py/ClosedBox?FingerJoint_angle=90.0&amp;FingerJoint_style=rectangular&amp;FingerJoint_surroundingspaces=2.0&amp;FingerJoint_bottom_lip=0.0&amp;FingerJoint_edge_width=1.0&amp;FingerJoint_extra_length=0.0&amp;FingerJoint_finger=2.0&amp;FingerJoint_play=0.0&amp;FingerJoint_space=2.0&amp;FingerJoint_width=1.0&amp;x=95&amp;y=115&amp;h=70&amp;outside=0&amp;outside=1&amp;thickness=3.0&amp;format=svg&amp;tabs=0.0&amp;qr_code=0&amp;debug=0&amp;labels=0&amp;labels=1&amp;reference=100.0&amp;inner_corners=loop&amp;burn=0.1&amp;language=fr&amp;render=1</dc:source>
        <dc:source>http://boxes.hackerspace-bamberg.de/boxes.py/ClosedBox?x=95&amp;y=115&amp;h=70</dc:source>
        <dc:description>Fully closed box

This box is more of a building block than a finished item.
Use a vector graphics program (like Inkscape) to add holes or adjust the base
plate.

See BasedBox for variant with a base.

Created with Boxes.py (https://festi.info/boxes.py)
Command line: boxes ClosedBox --FingerJoint_angle=90.0 --FingerJoint_style=rectangular --FingerJoint_surroundingspaces=2.0 --FingerJoint_bottom_lip=0.0 --FingerJoint_edge_width=1.0 --FingerJoint_extra_length=0.0 --FingerJoint_finger=2.0 --FingerJoint_play=0.0 --FingerJoint_space=2.0 --FingerJoint_width=1.0 --x=95 --y=115 --h=70 --outside=0 --outside=1 --thickness=3.0 --format=svg --tabs=0.0 --qr_code=0 --debug=0 --labels=0 --labels=1 --reference=100.0 --inner_corners=loop --burn=0.1
Command line short: boxes ClosedBox --x=95 --y=115 --h=70
Url: http://boxes.hackerspace-bamberg.de/boxes.py/ClosedBox?FingerJoint_angle=90.0&amp;FingerJoint_style=rectangular&amp;FingerJoint_surroundingspaces=2.0&amp;FingerJoint_bottom_lip=0.0&amp;FingerJoint_edge_width=1.0&amp;FingerJoint_extra_length=0.0&amp;FingerJoint_finger=2.0&amp;FingerJoint_play=0.0&amp;FingerJoint_space=2.0&amp;FingerJoint_width=1.0&amp;x=95&amp;y=115&amp;h=70&amp;outside=0&amp;outside=1&amp;thickness=3.0&amp;format=svg&amp;tabs=0.0&amp;qr_code=0&amp;debug=0&amp;labels=0&amp;labels=1&amp;reference=100.0&amp;inner_corners=loop&amp;burn=0.1&amp;language=fr&amp;render=1
Url short: http://boxes.hackerspace-bamberg.de/boxes.py/ClosedBox?x=95&amp;y=115&amp;h=70
SettingsUrl: http://boxes.hackerspace-bamberg.de/boxes.py/ClosedBox?FingerJoint_angle=90.0&amp;FingerJoint_style=rectangular&amp;FingerJoint_surroundingspaces=2.0&amp;FingerJoint_bottom_lip=0.0&amp;FingerJoint_edge_width=1.0&amp;FingerJoint_extra_length=0.0&amp;FingerJoint_finger=2.0&amp;FingerJoint_play=0.0&amp;FingerJoint_space=2.0&amp;FingerJoint_width=1.0&amp;x=95&amp;y=115&amp;h=70&amp;outside=0&amp;outside=1&amp;thickness=3.0&amp;format=svg&amp;tabs=0.0&amp;qr_code=0&amp;debug=0&amp;labels=0&amp;labels=1&amp;reference=100.0&amp;inner_corners=loop&amp;burn=0.1&amp;language=fr
SettingsUrl short: http://boxes.hackerspace-bamberg.de/boxes.py/ClosedBox?x=95&amp;y=115&amp;h=70
</dc:description>
      </cc:Work>
    </rdf:RDF>
  </metadata>
  <g
     id="p-1"
     style="fill:none;stroke-linecap:round;stroke-linejoin:round;stroke-width:0.05;stroke-dasharray:none;stroke:#ff0000;stroke-opacity:1">
    <text
       dominant-baseline="hanging"
       font-size="4px"
       style="font-style:normal;font-weight:normal;font-family:sans-serif;fill:#ff0000;stroke-width:0.05;stroke-dasharray:none;stroke:#ff0000;stroke-opacity:1"
       text-anchor="middle"
       transform="translate(57.6,231.6)"
       id="text2" />
    <path
       d="M 13.100 268.600 H 24.600 C 24.655 268.600 24.700 268.555 24.700 268.500 V 265.600 C 24.700 265.500 24.600 265.600 24.700 265.600 H 30.500 C 30.600 265.600 30.500 265.500 30.500 265.600 V 268.500 C 30.500 268.555 30.545 268.600 30.600 268.600 H 36.600 C 36.655 268.600 36.700 268.555 36.700 268.500 V 265.600 C 36.700 265.500 36.600 265.600 36.700 265.600 H 42.500 C 42.600 265.600 42.500 265.500 42.500 265.600 V 268.500 C 42.500 268.555 42.545 268.600 42.600 268.600 H 48.600 C 48.655 268.600 48.700 268.555 48.700 268.500 V 265.600 C 48.700 265.500 48.600 265.600 48.700 265.600 H 54.500 C 54.600 265.600 54.500 265.500 54.500 265.600 V 268.500 C 54.500 268.555 54.545 268.600 54.600 268.600 H 60.600 C 60.655 268.600 60.700 268.555 60.700 268.500 V 265.600 C 60.700 265.500 60.600 265.600 60.700 265.600 H 66.500 C 66.600 265.600 66.500 265.500 66.500 265.600 V 268.500 C 66.500 268.555 66.545 268.600 66.600 268.600 H 72.600 C 72.655 268.600 72.700 268.555 72.700 268.500 V 265.600 C 72.700 265.500 72.600 265.600 72.700 265.600 H 78.500 C 78.600 265.600 78.500 265.500 78.500 265.600 V 268.500 C 78.500 268.555 78.545 268.600 78.600 268.600 H 84.600 C 84.655 268.600 84.700 268.555 84.700 268.500 V 265.600 C 84.700 265.500 84.600 265.600 84.700 265.600 H 90.500 C 90.600 265.600 90.500 265.500 90.500 265.600 V 268.500 C 90.500 268.555 90.545 268.600 90.600 268.600 H 102.100 H 105.100 C 105.155 268.600 105.200 268.555 105.200 268.500 V 265.500 V 254.500 C 105.200 254.445 105.155 254.400 105.100 254.400 H 102.200 C 102.100 254.400 102.200 254.500 102.200 254.400 V 248.600 C 102.200 248.500 102.100 248.600 102.200 248.600 H 105.100 C 105.155 248.600 105.200 248.555 105.200 248.500 V 242.500 C 105.200 242.445 105.155 242.400 105.100 242.400 H 102.200 C 102.100 242.400 102.200 242.500 102.200 242.400 V 236.600 C 102.200 236.500 102.100 236.600 102.200 236.600 H 105.100 C 105.155 236.600 105.200 236.555 105.200 236.500 V 230.500 C 105.200 230.445 105.155 230.400 105.100 230.400 H 102.200 C 102.100 230.400 102.200 230.500 102.200 230.400 V 224.600 C 102.200 224.500 102.100 224.600 102.200 224.600 H 105.100 C 105.155 224.600 105.200 224.555 105.200 224.500 V 218.500 C 105.200 218.445 105.155 218.400 105.100 218.400 H 102.200 C 102.100 218.400 102.200 218.500 102.200 218.400 V 212.600 C 102.200 212.500 102.100 212.600 102.200 212.600 H 105.100 C 105.155 212.600 105.200 212.555 105.200 212.500 V 201.500 V 198.500 C 105.200 198.445 105.155 198.400 105.100 198.400 H 102.100 H 90.600 C 90.545 198.400 90.500 198.445 90.500 198.500 V 201.400 C 90.500 201.500 90.600 201.400 90.500 201.400 H 84.700 C 84.600 201.400 84.700 201.500 84.700 201.400 V 198.500 C 84.700 198.445 84.655 198.400 84.600 198.400 H 78.600 C 78.545 198.400 78.500 198.445 78.500 198.500 V 201.400 C 78.500 201.500 78.600 201.400 78.500 201.400 H 72.700 C 72.600 201.400 72.700 201.500 72.700 201.400 V 198.500 C 72.700 198.445 72.655 198.400 72.600 198.400 H 66.600 C 66.545 198.400 66.500 198.445 66.500 198.500 V 201.400 C 66.500 201.500 66.600 201.400 66.500 201.400 H 60.700 C 60.600 201.400 60.700 201.500 60.700 201.400 V 198.500 C 60.700 198.445 60.655 198.400 60.600 198.400 H 54.600 C 54.545 198.400 54.500 198.445 54.500 198.500 V 201.400 C 54.500 201.500 54.600 201.400 54.500 201.400 H 48.700 C 48.600 201.400 48.700 201.500 48.700 201.400 V 198.500 C 48.700 198.445 48.655 198.400 48.600 198.400 H 42.600 C 42.545 198.400 42.500 198.445 42.500 198.500 V 201.400 C 42.500 201.500 42.600 201.400 42.500 201.400 H 36.700 C 36.600 201.400 36.700 201.500 36.700 201.400 V 198.500 C 36.700 198.445 36.655 198.400 36.600 198.400 H 30.600 C 30.545 198.400 30.500 198.445 30.500 198.500 V 201.400 C 30.500 201.500 30.600 201.400 30.500 201.400 H 24.700 C 24.600 201.400 24.700 201.500 24.700 201.400 V 198.500 C 24.700 198.445 24.655 198.400 24.600 198.400 H 13.100 H 10.100 C 10.045 198.400 10.000 198.445 10.000 198.500 V 201.500 V 212.500 C 10.000 212.555 10.045 212.600 10.100 212.600 H 13.000 C 13.100 212.600 13.000 212.500 13.000 212.600 V 218.400 C 13.000 218.500 13.100 218.400 13.000 218.400 H 10.100 C 10.045 218.400 10.000 218.445 10.000 218.500 V 224.500 C 10.000 224.555 10.045 224.600 10.100 224.600 H 13.000 C 13.100 224.600 13.000 224.500 13.000 224.600 V 230.400 C 13.000 230.500 13.100 230.400 13.000 230.400 H 10.100 C 10.045 230.400 10.000 230.445 10.000 230.500 V 236.500 C 10.000 236.555 10.045 236.600 10.100 236.600 H 13.000 C 13.100 236.600 13.000 236.500 13.000 236.600 V 242.400 C 13.000 242.500 13.100 242.400 13.000 242.400 H 10.100 C 10.045 242.400 10.000 242.445 10.000 242.500 V 248.500 C 10.000 248.555 10.045 248.600 10.100 248.600 H 13.000 C 13.100 248.600 13.000 248.500 13.000 248.600 V 254.400 C 13.000 254.500 13.100 254.400 13.000 254.400 H 10.100 C 10.045 254.400 10.000 254.445 10.000 254.500 V 265.500 V 268.500 C 10.000 268.555 10.045 268.600 10.100 268.600 H 13.100"
       stroke="rgb(0,0,0)"
       stroke-width="0.20"
       id="path2"
       style="stroke-width:0.05;stroke-dasharray:none;stroke:#ff0000;stroke-opacity:1" />
  </g>
  <g
     id="p-2"
     style="fill:none;stroke-linecap:round;stroke-linejoin:round;stroke-width:0.05;stroke-dasharray:none;stroke:#ff0000;stroke-opacity:1">
    <text
       dominant-baseline="hanging"
       font-size="4px"
       style="font-style:normal;font-weight:normal;font-family:sans-serif;fill:#ff0000;stroke-width:0.05;stroke-dasharray:none;stroke:#ff0000;stroke-opacity:1"
       text-anchor="middle"
       transform="translate(164.3,231.6)"
       id="text3" />
    <path
       d="M 109.800 268.600 H 119.300 C 119.355 268.600 119.400 268.555 119.400 268.500 V 265.600 C 119.400 265.500 119.300 265.600 119.400 265.600 H 125.200 C 125.300 265.600 125.200 265.500 125.200 265.600 V 268.500 C 125.200 268.555 125.245 268.600 125.300 268.600 H 131.300 C 131.355 268.600 131.400 268.555 131.400 268.500 V 265.600 C 131.400 265.500 131.300 265.600 131.400 265.600 H 137.200 C 137.300 265.600 137.200 265.500 137.200 265.600 V 268.500 C 137.200 268.555 137.245 268.600 137.300 268.600 H 143.300 C 143.355 268.600 143.400 268.555 143.400 268.500 V 265.600 C 143.400 265.500 143.300 265.600 143.400 265.600 H 149.200 C 149.300 265.600 149.200 265.500 149.200 265.600 V 268.500 C 149.200 268.555 149.245 268.600 149.300 268.600 H 155.300 C 155.355 268.600 155.400 268.555 155.400 268.500 V 265.600 C 155.400 265.500 155.300 265.600 155.400 265.600 H 161.200 C 161.300 265.600 161.200 265.500 161.200 265.600 V 268.500 C 161.200 268.555 161.245 268.600 161.300 268.600 H 167.300 C 167.355 268.600 167.400 268.555 167.400 268.500 V 265.600 C 167.400 265.500 167.300 265.600 167.400 265.600 H 173.200 C 173.300 265.600 173.200 265.500 173.200 265.600 V 268.500 C 173.200 268.555 173.245 268.600 173.300 268.600 H 179.300 C 179.355 268.600 179.400 268.555 179.400 268.500 V 265.600 C 179.400 265.500 179.300 265.600 179.400 265.600 H 185.200 C 185.300 265.600 185.200 265.500 185.200 265.600 V 268.500 C 185.200 268.555 185.245 268.600 185.300 268.600 H 191.300 C 191.355 268.600 191.400 268.555 191.400 268.500 V 265.600 C 191.400 265.500 191.300 265.600 191.400 265.600 H 197.200 C 197.300 265.600 197.200 265.500 197.200 265.600 V 268.500 C 197.200 268.555 197.245 268.600 197.300 268.600 H 203.300 C 203.355 268.600 203.400 268.555 203.400 268.500 V 265.600 C 203.400 265.500 203.300 265.600 203.400 265.600 H 209.200 C 209.300 265.600 209.200 265.500 209.200 265.600 V 268.500 C 209.200 268.555 209.245 268.600 209.300 268.600 H 218.800 C 218.855 268.600 218.900 268.555 218.900 268.500 V 265.500 V 254.600 C 218.900 254.500 218.800 254.600 218.900 254.600 H 221.800 C 221.855 254.600 221.900 254.555 221.900 254.500 V 248.500 C 221.900 248.445 221.855 248.400 221.800 248.400 H 218.900 C 218.800 248.400 218.900 248.500 218.900 248.400 V 242.600 C 218.900 242.500 218.800 242.600 218.900 242.600 H 221.800 C 221.855 242.600 221.900 242.555 221.900 242.500 V 236.500 C 221.900 236.445 221.855 236.400 221.800 236.400 H 218.900 C 218.800 236.400 218.900 236.500 218.900 236.400 V 230.600 C 218.900 230.500 218.800 230.600 218.900 230.600 H 221.800 C 221.855 230.600 221.900 230.555 221.900 230.500 V 224.500 C 221.900 224.445 221.855 224.400 221.800 224.400 H 218.900 C 218.800 224.400 218.900 224.500 218.900 224.400 V 218.600 C 218.900 218.500 218.800 218.600 218.900 218.600 H 221.800 C 221.855 218.600 221.900 218.555 221.900 218.500 V 212.500 C 221.900 212.445 221.855 212.400 221.800 212.400 H 218.900 C 218.800 212.400 218.900 212.500 218.900 212.400 V 201.500 V 198.500 C 218.900 198.445 218.855 198.400 218.800 198.400 H 209.300 C 209.245 198.400 209.200 198.445 209.200 198.500 V 201.400 C 209.200 201.500 209.300 201.400 209.200 201.400 H 203.400 C 203.300 201.400 203.400 201.500 203.400 201.400 V 198.500 C 203.400 198.445 203.355 198.400 203.300 198.400 H 197.300 C 197.245 198.400 197.200 198.445 197.200 198.500 V 201.400 C 197.200 201.500 197.300 201.400 197.200 201.400 H 191.400 C 191.300 201.400 191.400 201.500 191.400 201.400 V 198.500 C 191.400 198.445 191.355 198.400 191.300 198.400 H 185.300 C 185.245 198.400 185.200 198.445 185.200 198.500 V 201.400 C 185.200 201.500 185.300 201.400 185.200 201.400 H 179.400 C 179.300 201.400 179.400 201.500 179.400 201.400 V 198.500 C 179.400 198.445 179.355 198.400 179.300 198.400 H 173.300 C 173.245 198.400 173.200 198.445 173.200 198.500 V 201.400 C 173.200 201.500 173.300 201.400 173.200 201.400 H 167.400 C 167.300 201.400 167.400 201.500 167.400 201.400 V 198.500 C 167.400 198.445 167.355 198.400 167.300 198.400 H 161.300 C 161.245 198.400 161.200 198.445 161.200 198.500 V 201.400 C 161.200 201.500 161.300 201.400 161.200 201.400 H 155.400 C 155.300 201.400 155.400 201.500 155.400 201.400 V 198.500 C 155.400 198.445 155.355 198.400 155.300 198.400 H 149.300 C 149.245 198.400 149.200 198.445 149.200 198.500 V 201.400 C 149.200 201.500 149.300 201.400 149.200 201.400 H 143.400 C 143.300 201.400 143.400 201.500 143.400 201.400 V 198.500 C 143.400 198.445 143.355 198.400 143.300 198.400 H 137.300 C 137.245 198.400 137.200 198.445 137.200 198.500 V 201.400 C 137.200 201.500 137.300 201.400 137.200 201.400 H 131.400 C 131.300 201.400 131.400 201.500 131.400 201.400 V 198.500 C 131.400 198.445 131.355 198.400 131.300 198.400 H 125.300 C 125.245 198.400 125.200 198.445 125.200 198.500 V 201.400 C 125.200 201.500 125.300 201.400 125.200 201.400 H 119.400 C 119.300 201.400 119.400 201.500 119.400 201.400 V 198.500 C 119.400 198.445 119.355 198.400 119.300 198.400 H 109.800 C 109.745 198.400 109.700 198.445 109.700 198.500 V 201.500 V 212.400 C 109.700 212.500 109.800 212.400 109.700 212.400 H 106.800 C 106.745 212.400 106.700 212.445 106.700 212.500 V 218.500 C 106.700 218.555 106.745 218.600 106.800 218.600 H 109.700 C 109.800 218.600 109.700 218.500 109.700 218.600 V 224.400 C 109.700 224.500 109.800 224.400 109.700 224.400 H 106.800 C 106.745 224.400 106.700 224.445 106.700 224.500 V 230.500 C 106.700 230.555 106.745 230.600 106.800 230.600 H 109.700 C 109.800 230.600 109.700 230.500 109.700 230.600 V 236.400 C 109.700 236.500 109.800 236.400 109.700 236.400 H 106.800 C 106.745 236.400 106.700 236.445 106.700 236.500 V 242.500 C 106.700 242.555 106.745 242.600 106.800 242.600 H 109.700 C 109.800 242.600 109.700 242.500 109.700 242.600 V 248.400 C 109.700 248.500 109.800 248.400 109.700 248.400 H 106.800 C 106.745 248.400 106.700 248.445 106.700 248.500 V 254.500 C 106.700 254.555 106.745 254.600 106.800 254.600 H 109.700 C 109.800 254.600 109.700 254.500 109.700 254.600 V 265.500 V 268.500 C 109.700 268.555 109.745 268.600 109.800 268.600"
       stroke="rgb(0,0,0)"
       stroke-width="0.20"
       id="path3"
       style="stroke-width:0.05;stroke-dasharray:none;stroke:#ff0000;stroke-opacity:1" />
  </g>
  <g
     id="p-3"
     style="fill:none;stroke-linecap:round;stroke-linejoin:round;stroke-width:0.05;stroke-dasharray:none;stroke:#ff0000;stroke-opacity:1">
    <text
       dominant-baseline="hanging"
       font-size="4px"
       style="font-style:normal;font-weight:normal;font-family:sans-serif;fill:#ff0000;stroke-width:0.05;stroke-dasharray:none;stroke:#ff0000;stroke-opacity:1"
       text-anchor="middle"
       transform="translate(164.3,159.9)"
       id="text4" />
    <path
       d="M 109.800 196.900 H 119.300 C 119.355 196.900 119.400 196.855 119.400 196.800 V 193.900 C 119.400 193.800 119.300 193.900 119.400 193.900 H 125.200 C 125.300 193.900 125.200 193.800 125.200 193.900 V 196.800 C 125.200 196.855 125.245 196.900 125.300 196.900 H 131.300 C 131.355 196.900 131.400 196.855 131.400 196.800 V 193.900 C 131.400 193.800 131.300 193.900 131.400 193.900 H 137.200 C 137.300 193.900 137.200 193.800 137.200 193.900 V 196.800 C 137.200 196.855 137.245 196.900 137.300 196.900 H 143.300 C 143.355 196.900 143.400 196.855 143.400 196.800 V 193.900 C 143.400 193.800 143.300 193.900 143.400 193.900 H 149.200 C 149.300 193.900 149.200 193.800 149.200 193.900 V 196.800 C 149.200 196.855 149.245 196.900 149.300 196.900 H 155.300 C 155.355 196.900 155.400 196.855 155.400 196.800 V 193.900 C 155.400 193.800 155.300 193.900 155.400 193.900 H 161.200 C 161.300 193.900 161.200 193.800 161.200 193.900 V 196.800 C 161.200 196.855 161.245 196.900 161.300 196.900 H 167.300 C 167.355 196.900 167.400 196.855 167.400 196.800 V 193.900 C 167.400 193.800 167.300 193.900 167.400 193.900 H 173.200 C 173.300 193.900 173.200 193.800 173.200 193.900 V 196.800 C 173.200 196.855 173.245 196.900 173.300 196.900 H 179.300 C 179.355 196.900 179.400 196.855 179.400 196.800 V 193.900 C 179.400 193.800 179.300 193.900 179.400 193.900 H 185.200 C 185.300 193.900 185.200 193.800 185.200 193.900 V 196.800 C 185.200 196.855 185.245 196.900 185.300 196.900 H 191.300 C 191.355 196.900 191.400 196.855 191.400 196.800 V 193.900 C 191.400 193.800 191.300 193.900 191.400 193.900 H 197.200 C 197.300 193.900 197.200 193.800 197.200 193.900 V 196.800 C 197.200 196.855 197.245 196.900 197.300 196.900 H 203.300 C 203.355 196.900 203.400 196.855 203.400 196.800 V 193.900 C 203.400 193.800 203.300 193.900 203.400 193.900 H 209.200 C 209.300 193.900 209.200 193.800 209.200 193.900 V 196.800 C 209.200 196.855 209.245 196.900 209.300 196.900 H 218.800 C 218.855 196.900 218.900 196.855 218.900 196.800 V 193.800 V 182.900 C 218.900 182.800 218.800 182.900 218.900 182.900 H 221.800 C 221.855 182.900 221.900 182.855 221.900 182.800 V 176.800 C 221.900 176.745 221.855 176.700 221.800 176.700 H 218.900 C 218.800 176.700 218.900 176.800 218.900 176.700 V 170.900 C 218.900 170.800 218.800 170.900 218.900 170.900 H 221.800 C 221.855 170.900 221.900 170.855 221.900 170.800 V 164.800 C 221.900 164.745 221.855 164.700 221.800 164.700 H 218.900 C 218.800 164.700 218.900 164.800 218.900 164.700 V 158.900 C 218.900 158.800 218.800 158.900 218.900 158.900 H 221.800 C 221.855 158.900 221.900 158.855 221.900 158.800 V 152.800 C 221.900 152.745 221.855 152.700 221.800 152.700 H 218.900 C 218.800 152.700 218.900 152.800 218.900 152.700 V 146.900 C 218.900 146.800 218.800 146.900 218.900 146.900 H 221.800 C 221.855 146.900 221.900 146.855 221.900 146.800 V 140.800 C 221.900 140.745 221.855 140.700 221.800 140.700 H 218.900 C 218.800 140.700 218.900 140.800 218.900 140.700 V 129.800 V 126.800 C 218.900 126.745 218.855 126.700 218.800 126.700 H 209.300 C 209.245 126.700 209.200 126.745 209.200 126.800 V 129.700 C 209.200 129.800 209.300 129.700 209.200 129.700 H 203.400 C 203.300 129.700 203.400 129.800 203.400 129.700 V 126.800 C 203.400 126.745 203.355 126.700 203.300 126.700 H 197.300 C 197.245 126.700 197.200 126.745 197.200 126.800 V 129.700 C 197.200 129.800 197.300 129.700 197.200 129.700 H 191.400 C 191.300 129.700 191.400 129.800 191.400 129.700 V 126.800 C 191.400 126.745 191.355 126.700 191.300 126.700 H 185.300 C 185.245 126.700 185.200 126.745 185.200 126.800 V 129.700 C 185.200 129.800 185.300 129.700 185.200 129.700 H 179.400 C 179.300 129.700 179.400 129.800 179.400 129.700 V 126.800 C 179.400 126.745 179.355 126.700 179.300 126.700 H 173.300 C 173.245 126.700 173.200 126.745 173.200 126.800 V 129.700 C 173.200 129.800 173.300 129.700 173.200 129.700 H 167.400 C 167.300 129.700 167.400 129.800 167.400 129.700 V 126.800 C 167.400 126.745 167.355 126.700 167.300 126.700 H 161.300 C 161.245 126.700 161.200 126.745 161.200 126.800 V 129.700 C 161.200 129.800 161.300 129.700 161.200 129.700 H 155.400 C 155.300 129.700 155.400 129.800 155.400 129.700 V 126.800 C 155.400 126.745 155.355 126.700 155.300 126.700 H 149.300 C 149.245 126.700 149.200 126.745 149.200 126.800 V 129.700 C 149.200 129.800 149.300 129.700 149.200 129.700 H 143.400 C 143.300 129.700 143.400 129.800 143.400 129.700 V 126.800 C 143.400 126.745 143.355 126.700 143.300 126.700 H 137.300 C 137.245 126.700 137.200 126.745 137.200 126.800 V 129.700 C 137.200 129.800 137.300 129.700 137.200 129.700 H 131.400 C 131.300 129.700 131.400 129.800 131.400 129.700 V 126.800 C 131.400 126.745 131.355 126.700 131.300 126.700 H 125.300 C 125.245 126.700 125.200 126.745 125.200 126.800 V 129.700 C 125.200 129.800 125.300 129.700 125.200 129.700 H 119.400 C 119.300 129.700 119.400 129.800 119.400 129.700 V 126.800 C 119.400 126.745 119.355 126.700 119.300 126.700 H 109.800 C 109.745 126.700 109.700 126.745 109.700 126.800 V 129.800 V 140.700 C 109.700 140.800 109.800 140.700 109.700 140.700 H 106.800 C 106.745 140.700 106.700 140.745 106.700 140.800 V 146.800 C 106.700 146.855 106.745 146.900 106.800 146.900 H 109.700 C 109.800 146.900 109.700 146.800 109.700 146.900 V 152.700 C 109.700 152.800 109.800 152.700 109.700 152.700 H 106.800 C 106.745 152.700 106.700 152.745 106.700 152.800 V 158.800 C 106.700 158.855 106.745 158.900 106.800 158.900 H 109.700 C 109.800 158.900 109.700 158.800 109.700 158.900 V 164.700 C 109.700 164.800 109.800 164.700 109.700 164.700 H 106.800 C 106.745 164.700 106.700 164.745 106.700 164.800 V 170.800 C 106.700 170.855 106.745 170.900 106.800 170.900 H 109.700 C 109.800 170.900 109.700 170.800 109.700 170.900 V 176.700 C 109.700 176.800 109.800 176.700 109.700 176.700 H 106.800 C 106.745 176.700 106.700 176.745 106.700 176.800 V 182.800 C 106.700 182.855 106.745 182.900 106.800 182.900 H 109.700 C 109.800 182.900 109.700 182.800 109.700 182.900 V 193.800 V 196.800 C 109.700 196.855 109.745 196.900 109.800 196.900"
       stroke="rgb(0,0,0)"
       stroke-width="0.20"
       id="path4"
       style="stroke-width:0.05;stroke-dasharray:none;stroke:#ff0000;stroke-opacity:1" />
  </g>
  <g
     id="p-4"
     style="fill:none;stroke-linecap:round;stroke-linejoin:round;stroke-width:0.05;stroke-dasharray:none;stroke:#ff0000;stroke-opacity:1">
    <text
       dominant-baseline="hanging"
       font-size="4px"
       style="font-style:normal;font-weight:normal;font-family:sans-serif;fill:#ff0000;stroke-width:0.05;stroke-dasharray:none;stroke:#ff0000;stroke-opacity:1"
       text-anchor="middle"
       transform="translate(57.6,159.9)"
       id="text5" />
    <path
       d="M 13.100 196.900 H 24.600 C 24.655 196.900 24.700 196.855 24.700 196.800 V 193.900 C 24.700 193.800 24.600 193.900 24.700 193.900 H 30.500 C 30.600 193.900 30.500 193.800 30.500 193.900 V 196.800 C 30.500 196.855 30.545 196.900 30.600 196.900 H 36.600 C 36.655 196.900 36.700 196.855 36.700 196.800 V 193.900 C 36.700 193.800 36.600 193.900 36.700 193.900 H 42.500 C 42.600 193.900 42.500 193.800 42.500 193.900 V 196.800 C 42.500 196.855 42.545 196.900 42.600 196.900 H 48.600 C 48.655 196.900 48.700 196.855 48.700 196.800 V 193.900 C 48.700 193.800 48.600 193.900 48.700 193.900 H 54.500 C 54.600 193.900 54.500 193.800 54.500 193.900 V 196.800 C 54.500 196.855 54.545 196.900 54.600 196.900 H 60.600 C 60.655 196.900 60.700 196.855 60.700 196.800 V 193.900 C 60.700 193.800 60.600 193.900 60.700 193.900 H 66.500 C 66.600 193.900 66.500 193.800 66.500 193.900 V 196.800 C 66.500 196.855 66.545 196.900 66.600 196.900 H 72.600 C 72.655 196.900 72.700 196.855 72.700 196.800 V 193.900 C 72.700 193.800 72.600 193.900 72.700 193.900 H 78.500 C 78.600 193.900 78.500 193.800 78.500 193.900 V 196.800 C 78.500 196.855 78.545 196.900 78.600 196.900 H 84.600 C 84.655 196.900 84.700 196.855 84.700 196.800 V 193.900 C 84.700 193.800 84.600 193.900 84.700 193.900 H 90.500 C 90.600 193.900 90.500 193.800 90.500 193.900 V 196.800 C 90.500 196.855 90.545 196.900 90.600 196.900 H 102.100 H 105.100 C 105.155 196.900 105.200 196.855 105.200 196.800 V 193.800 V 182.800 C 105.200 182.745 105.155 182.700 105.100 182.700 H 102.200 C 102.100 182.700 102.200 182.800 102.200 182.700 V 176.900 C 102.200 176.800 102.100 176.900 102.200 176.900 H 105.100 C 105.155 176.900 105.200 176.855 105.200 176.800 V 170.800 C 105.200 170.745 105.155 170.700 105.100 170.700 H 102.200 C 102.100 170.700 102.200 170.800 102.200 170.700 V 164.900 C 102.200 164.800 102.100 164.900 102.200 164.900 H 105.100 C 105.155 164.900 105.200 164.855 105.200 164.800 V 158.800 C 105.200 158.745 105.155 158.700 105.100 158.700 H 102.200 C 102.100 158.700 102.200 158.800 102.200 158.700 V 152.900 C 102.200 152.800 102.100 152.900 102.200 152.900 H 105.100 C 105.155 152.900 105.200 152.855 105.200 152.800 V 146.800 C 105.200 146.745 105.155 146.700 105.100 146.700 H 102.200 C 102.100 146.700 102.200 146.800 102.200 146.700 V 140.900 C 102.200 140.800 102.100 140.900 102.200 140.900 H 105.100 C 105.155 140.900 105.200 140.855 105.200 140.800 V 129.800 V 126.800 C 105.200 126.745 105.155 126.700 105.100 126.700 H 102.100 H 90.600 C 90.545 126.700 90.500 126.745 90.500 126.800 V 129.700 C 90.500 129.800 90.600 129.700 90.500 129.700 H 84.700 C 84.600 129.700 84.700 129.800 84.700 129.700 V 126.800 C 84.700 126.745 84.655 126.700 84.600 126.700 H 78.600 C 78.545 126.700 78.500 126.745 78.500 126.800 V 129.700 C 78.500 129.800 78.600 129.700 78.500 129.700 H 72.700 C 72.600 129.700 72.700 129.800 72.700 129.700 V 126.800 C 72.700 126.745 72.655 126.700 72.600 126.700 H 66.600 C 66.545 126.700 66.500 126.745 66.500 126.800 V 129.700 C 66.500 129.800 66.600 129.700 66.500 129.700 H 60.700 C 60.600 129.700 60.700 129.800 60.700 129.700 V 126.800 C 60.700 126.745 60.655 126.700 60.600 126.700 H 54.600 C 54.545 126.700 54.500 126.745 54.500 126.800 V 129.700 C 54.500 129.800 54.600 129.700 54.500 129.700 H 48.700 C 48.600 129.700 48.700 129.800 48.700 129.700 V 126.800 C 48.700 126.745 48.655 126.700 48.600 126.700 H 42.600 C 42.545 126.700 42.500 126.745 42.500 126.800 V 129.700 C 42.500 129.800 42.600 129.700 42.500 129.700 H 36.700 C 36.600 129.700 36.700 129.800 36.700 129.700 V 126.800 C 36.700 126.745 36.655 126.700 36.600 126.700 H 30.600 C 30.545 126.700 30.500 126.745 30.500 126.800 V 129.700 C 30.500 129.800 30.600 129.700 30.500 129.700 H 24.700 C 24.600 129.700 24.700 129.800 24.700 129.700 V 126.800 C 24.700 126.745 24.655 126.700 24.600 126.700 H 13.100 H 10.100 C 10.045 126.700 10.000 126.745 10.000 126.800 V 129.800 V 140.800 C 10.000 140.855 10.045 140.900 10.100 140.900 H 13.000 C 13.100 140.900 13.000 140.800 13.000 140.900 V 146.700 C 13.000 146.800 13.100 146.700 13.000 146.700 H 10.100 C 10.045 146.700 10.000 146.745 10.000 146.800 V 152.800 C 10.000 152.855 10.045 152.900 10.100 152.900 H 13.000 C 13.100 152.900 13.000 152.800 13.000 152.900 V 158.700 C 13.000 158.800 13.100 158.700 13.000 158.700 H 10.100 C 10.045 158.700 10.000 158.745 10.000 158.800 V 164.800 C 10.000 164.855 10.045 164.900 10.100 164.900 H 13.000 C 13.100 164.900 13.000 164.800 13.000 164.900 V 170.700 C 13.000 170.800 13.100 170.700 13.000 170.700 H 10.100 C 10.045 170.700 10.000 170.745 10.000 170.800 V 176.800 C 10.000 176.855 10.045 176.900 10.100 176.900 H 13.000 C 13.100 176.900 13.000 176.800 13.000 176.900 V 182.700 C 13.000 182.800 13.100 182.700 13.000 182.700 H 10.100 C 10.045 182.700 10.000 182.745 10.000 182.800 V 193.800 V 196.800 C 10.000 196.855 10.045 196.900 10.100 196.900 H 13.100"
       stroke="rgb(0,0,0)"
       stroke-width="0.20"
       id="path5"
       style="stroke-width:0.05;stroke-dasharray:none;stroke:#ff0000;stroke-opacity:1" />
  </g>
  <g
     id="p-5"
     style="fill:none;stroke-linecap:round;stroke-linejoin:round;stroke-width:0.05;stroke-dasharray:none;stroke:#ff0000;stroke-opacity:1">
    <text
       dominant-baseline="hanging"
       font-size="4px"
       style="font-style:normal;font-weight:normal;font-family:sans-serif;fill:#ff0000;stroke-width:0.05;stroke-dasharray:none;stroke:#ff0000;stroke-opacity:1"
       text-anchor="middle"
       transform="translate(57.6,65.7)"
       id="text6" />
    <path
       d="M 13.100 122.200 H 24.500 C 24.600 122.200 24.500 122.100 24.500 122.200 V 125.100 C 24.500 125.155 24.545 125.200 24.600 125.200 H 30.600 C 30.655 125.200 30.700 125.155 30.700 125.100 V 122.200 C 30.700 122.100 30.600 122.200 30.700 122.200 H 36.500 C 36.600 122.200 36.500 122.100 36.500 122.200 V 125.100 C 36.500 125.155 36.545 125.200 36.600 125.200 H 42.600 C 42.655 125.200 42.700 125.155 42.700 125.100 V 122.200 C 42.700 122.100 42.600 122.200 42.700 122.200 H 48.500 C 48.600 122.200 48.500 122.100 48.500 122.200 V 125.100 C 48.500 125.155 48.545 125.200 48.600 125.200 H 54.600 C 54.655 125.200 54.700 125.155 54.700 125.100 V 122.200 C 54.700 122.100 54.600 122.200 54.700 122.200 H 60.500 C 60.600 122.200 60.500 122.100 60.500 122.200 V 125.100 C 60.500 125.155 60.545 125.200 60.600 125.200 H 66.600 C 66.655 125.200 66.700 125.155 66.700 125.100 V 122.200 C 66.700 122.100 66.600 122.200 66.700 122.200 H 72.500 C 72.600 122.200 72.500 122.100 72.500 122.200 V 125.100 C 72.500 125.155 72.545 125.200 72.600 125.200 H 78.600 C 78.655 125.200 78.700 125.155 78.700 125.100 V 122.200 C 78.700 122.100 78.600 122.200 78.700 122.200 H 84.500 C 84.600 122.200 84.500 122.100 84.500 122.200 V 125.100 C 84.500 125.155 84.545 125.200 84.600 125.200 H 90.600 C 90.655 125.200 90.700 125.155 90.700 125.100 V 122.200 C 90.700 122.100 90.600 122.200 90.700 122.200 H 102.100 C 102.155 122.200 102.200 122.155 102.200 122.100 V 112.700 C 102.200 112.600 102.100 112.700 102.200 112.700 H 105.100 C 105.155 112.700 105.200 112.655 105.200 112.600 V 106.600 C 105.200 106.545 105.155 106.500 105.100 106.500 H 102.200 C 102.100 106.500 102.200 106.600 102.200 106.500 V 100.700 C 102.200 100.600 102.100 100.700 102.200 100.700 H 105.100 C 105.155 100.700 105.200 100.655 105.200 100.600 V 94.600 C 105.200 94.545 105.155 94.500 105.100 94.500 H 102.200 C 102.100 94.500 102.200 94.600 102.200 94.500 V 88.700 C 102.200 88.600 102.100 88.700 102.200 88.700 H 105.100 C 105.155 88.700 105.200 88.655 105.200 88.600 V 82.600 C 105.200 82.545 105.155 82.500 105.100 82.500 H 102.200 C 102.100 82.500 102.200 82.600 102.200 82.500 V 76.700 C 102.200 76.600 102.100 76.700 102.200 76.700 H 105.100 C 105.155 76.700 105.200 76.655 105.200 76.600 V 70.600 C 105.200 70.545 105.155 70.500 105.100 70.500 H 102.200 C 102.100 70.500 102.200 70.600 102.200 70.500 V 64.700 C 102.200 64.600 102.100 64.700 102.200 64.700 H 105.100 C 105.155 64.700 105.200 64.655 105.200 64.600 V 58.600 C 105.200 58.545 105.155 58.500 105.100 58.500 H 102.200 C 102.100 58.500 102.200 58.600 102.200 58.500 V 52.700 C 102.200 52.600 102.100 52.700 102.200 52.700 H 105.100 C 105.155 52.700 105.200 52.655 105.200 52.600 V 46.600 C 105.200 46.545 105.155 46.500 105.100 46.500 H 102.200 C 102.100 46.500 102.200 46.600 102.200 46.500 V 40.700 C 102.200 40.600 102.100 40.700 102.200 40.700 H 105.100 C 105.155 40.700 105.200 40.655 105.200 40.600 V 34.600 C 105.200 34.545 105.155 34.500 105.100 34.500 H 102.200 C 102.100 34.500 102.200 34.600 102.200 34.500 V 28.700 C 102.200 28.600 102.100 28.700 102.200 28.700 H 105.100 C 105.155 28.700 105.200 28.655 105.200 28.600 V 22.600 C 105.200 22.545 105.155 22.500 105.100 22.500 H 102.200 C 102.100 22.500 102.200 22.600 102.200 22.500 V 13.100 C 102.200 13.045 102.155 13.000 102.100 13.000 H 90.700 C 90.600 13.000 90.700 13.100 90.700 13.000 V 10.100 C 90.700 10.045 90.655 10.000 90.600 10.000 H 84.600 C 84.545 10.000 84.500 10.045 84.500 10.100 V 13.000 C 84.500 13.100 84.600 13.000 84.500 13.000 H 78.700 C 78.600 13.000 78.700 13.100 78.700 13.000 V 10.100 C 78.700 10.045 78.655 10.000 78.600 10.000 H 72.600 C 72.545 10.000 72.500 10.045 72.500 10.100 V 13.000 C 72.500 13.100 72.600 13.000 72.500 13.000 H 66.700 C 66.600 13.000 66.700 13.100 66.700 13.000 V 10.100 C 66.700 10.045 66.655 10.000 66.600 10.000 H 60.600 C 60.545 10.000 60.500 10.045 60.500 10.100 V 13.000 C 60.500 13.100 60.600 13.000 60.500 13.000 H 54.700 C 54.600 13.000 54.700 13.100 54.700 13.000 V 10.100 C 54.700 10.045 54.655 10.000 54.600 10.000 H 48.600 C 48.545 10.000 48.500 10.045 48.500 10.100 V 13.000 C 48.500 13.100 48.600 13.000 48.500 13.000 H 42.700 C 42.600 13.000 42.700 13.100 42.700 13.000 V 10.100 C 42.700 10.045 42.655 10.000 42.600 10.000 H 36.600 C 36.545 10.000 36.500 10.045 36.500 10.100 V 13.000 C 36.500 13.100 36.600 13.000 36.500 13.000 H 30.700 C 30.600 13.000 30.700 13.100 30.700 13.000 V 10.100 C 30.700 10.045 30.655 10.000 30.600 10.000 H 24.600 C 24.545 10.000 24.500 10.045 24.500 10.100 V 13.000 C 24.500 13.100 24.600 13.000 24.500 13.000 H 13.100 C 13.045 13.000 13.000 13.045 13.000 13.100 V 22.500 C 13.000 22.600 13.100 22.500 13.000 22.500 H 10.100 C 10.045 22.500 10.000 22.545 10.000 22.600 V 28.600 C 10.000 28.655 10.045 28.700 10.100 28.700 H 13.000 C 13.100 28.700 13.000 28.600 13.000 28.700 V 34.500 C 13.000 34.600 13.100 34.500 13.000 34.500 H 10.100 C 10.045 34.500 10.000 34.545 10.000 34.600 V 40.600 C 10.000 40.655 10.045 40.700 10.100 40.700 H 13.000 C 13.100 40.700 13.000 40.600 13.000 40.700 V 46.500 C 13.000 46.600 13.100 46.500 13.000 46.500 H 10.100 C 10.045 46.500 10.000 46.545 10.000 46.600 V 52.600 C 10.000 52.655 10.045 52.700 10.100 52.700 H 13.000 C 13.100 52.700 13.000 52.600 13.000 52.700 V 58.500 C 13.000 58.600 13.100 58.500 13.000 58.500 H 10.100 C 10.045 58.500 10.000 58.545 10.000 58.600 V 64.600 C 10.000 64.655 10.045 64.700 10.100 64.700 H 13.000 C 13.100 64.700 13.000 64.600 13.000 64.700 V 70.500 C 13.000 70.600 13.100 70.500 13.000 70.500 H 10.100 C 10.045 70.500 10.000 70.545 10.000 70.600 V 76.600 C 10.000 76.655 10.045 76.700 10.100 76.700 H 13.000 C 13.100 76.700 13.000 76.600 13.000 76.700 V 82.500 C 13.000 82.600 13.100 82.500 13.000 82.500 H 10.100 C 10.045 82.500 10.000 82.545 10.000 82.600 V 88.600 C 10.000 88.655 10.045 88.700 10.100 88.700 H 13.000 C 13.100 88.700 13.000 88.600 13.000 88.700 V 94.500 C 13.000 94.600 13.100 94.500 13.000 94.500 H 10.100 C 10.045 94.500 10.000 94.545 10.000 94.600 V 100.600 C 10.000 100.655 10.045 100.700 10.100 100.700 H 13.000 C 13.100 100.700 13.000 100.600 13.000 100.700 V 106.500 C 13.000 106.600 13.100 106.500 13.000 106.500 H 10.100 C 10.045 106.500 10.000 106.545 10.000 106.600 V 112.600 C 10.000 112.655 10.045 112.700 10.100 112.700 H 13.000 C 13.100 112.700 13.000 112.600 13.000 112.700 V 122.100 C 13.000 122.155 13.045 122.200 13.100 122.200"
       stroke="rgb(0,0,0)"
       stroke-width="0.20"
       id="path6"
       style="stroke-width:0.05;stroke-dasharray:none;stroke:#ff0000;stroke-opacity:1" />
  </g>
  <g
     id="p-6"
     style="fill:none;stroke-linecap:round;stroke-linejoin:round;stroke-width:0.05;stroke-dasharray:none;stroke:#ff0000;stroke-opacity:1"
     transform="translate(11.90625,-1.3229167)">
    <text
       dominant-baseline="hanging"
       font-size="4px"
       style="font-style:normal;font-weight:normal;font-family:sans-serif;fill:#ff0000;stroke-width:0.05;stroke-dasharray:none;stroke:#ff0000;stroke-opacity:1"
       text-anchor="middle"
       transform="translate(154.3,65.7)"
       id="text7" />
    <path
       d="m 109.8,122.2 h 11.4 c 0.1,0 0,-0.1 0,0 v 2.9 c 0,0.055 0.045,0.1 0.1,0.1 h 6 c 0.055,0 0.1,-0.045 0.1,-0.1 v -2.9 c 0,-0.1 -0.1,0 0,0 h 5.8 c 0.1,0 0,-0.1 0,0 v 2.9 c 0,0.055 0.045,0.1 0.1,0.1 h 6 c 0.055,0 0.1,-0.045 0.1,-0.1 v -2.9 c 0,-0.1 -0.1,0 0,0 h 5.8 c 0.1,0 0,-0.1 0,0 v 2.9 c 0,0.055 0.045,0.1 0.1,0.1 h 6 c 0.055,0 0.1,-0.045 0.1,-0.1 v -2.9 c 0,-0.1 -0.1,0 0,0 h 5.8 c 0.1,0 0,-0.1 0,0 v 2.9 c 0,0.055 0.045,0.1 0.1,0.1 h 6 c 0.055,0 0.1,-0.045 0.1,-0.1 v -2.9 c 0,-0.1 -0.1,0 0,0 h 5.8 c 0.1,0 0,-0.1 0,0 v 2.9 c 0,0.055 0.045,0.1 0.1,0.1 h 6 c 0.055,0 0.1,-0.045 0.1,-0.1 v -2.9 c 0,-0.1 -0.1,0 0,0 h 5.8 c 0.1,0 0,-0.1 0,0 v 2.9 c 0,0.055 0.045,0.1 0.1,0.1 h 6 c 0.055,0 0.1,-0.045 0.1,-0.1 v -2.9 c 0,-0.1 -0.1,0 0,0 h 11.4 c 0.055,0 4.55496,0.0822 4.53177,0.0323 l 0.0392,-16.57682 c 0.055,0 -19.79008,-0.0885 -19.79008,-0.14394 -0.12676,-25.427208 0.29915,-50.028292 -0.0112,-76.987594 0.50319,-0.01875 18.98649,-0.0058 19.78476,-0.0058 0.055,0 0.1,-0.045 0.1,-0.1 v -6 l -0.0581,-9.580848 c 0,-0.055 -2.98691,-0.01915 -3.04191,-0.01915 h -11.4 c -0.1,0 0,0.1 0,0 v -2.9 c 0,-0.055 -0.045,-0.101324 -0.1,-0.1 L 181.3,10 c -0.055,0.0013 -0.1,0.045 -0.1,0.1 V 13 c 0,0.1 0.1,0 0,0 h -5.8 c -0.1,0 0,0.1 0,0 v -2.9 c 0,-0.055 -0.045,-0.1 -0.1,-0.1 h -6 c -0.055,0 -0.1,0.045 -0.1,0.1 V 13 c 0,0.1 0.1,0 0,0 h -5.8 c -0.1,0 0,0.1 0,0 v -2.9 c 0,-0.055 -0.045,-0.1 -0.1,-0.1 h -6 c -0.055,0 -0.1,0.045 -0.1,0.1 V 13 c 0,0.1 0.1,0 0,0 h -5.8 c -0.1,0 0,0.1 0,0 v -2.9 c 0,-0.055 -0.045,-0.1 -0.1,-0.1 h -6 c -0.055,0 -0.1,0.045 -0.1,0.1 V 13 c 0,0.1 0.1,0 0,0 h -5.8 c -0.1,0 0,0.1 0,0 v -2.9 c 0,-0.055 -0.045,-0.1 -0.1,-0.1 h -6 c -0.055,0 -0.1,0.045 -0.1,0.1 V 13 c 0,0.1 0.1,0 0,0 h -5.8 c -0.1,0 0,0.1 0,0 v -2.9 c 0,-0.055 -0.045,-0.1 -0.1,-0.1 h -6 c -0.055,0 -0.1,0.045 -0.1,0.1 V 13 c 0,0.1 0.1,0 0,0 h -11.4 c -0.055,0 -3.0931,-0.03768 -3.0931,0.01732 L 106.7,22.583464 V 28.6 c 0,0.055 0.045,0.1 0.1,0.1 h 21.23469 c -0.23475,25.93292 -0.0331,51.920394 -0.0468,77.85375 -0.63388,0.0235 -21.28792,-0.0853 -21.28792,0.0463 v 6 c 0,5.62096 0.0342,5.80476 0.04,9.59922 9e-5,0.055 3.00503,7.8e-4 3.06003,7.8e-4"
       stroke="#000000"
       stroke-width="0.2"
       id="path7"
       sodipodi:nodetypes="cssssssssssssssssssssssssssssssssssssssssssssssssscccsssccssssssssssssssssssssssssssssssssssssssssssssssssssccsscssssc"
       style="stroke-width:0.05;stroke-dasharray:none;stroke:#ff0000;stroke-opacity:1" />
  </g>
  <ellipse
     style="fill:none;stroke:#ff0000;stroke-width:0.05;stroke-dasharray:none;stroke-opacity:1"
     id="path8-3"
     cx="68.363556"
     cy="220.38675"
     rx="7.5639086"
     ry="7.5639048" />
  <ellipse
     style="fill:none;stroke:#ff0000;stroke-width:0.05;stroke-dasharray:none;stroke-opacity:1"
     id="path8-3-7"
     cx="47.183327"
     cy="220.58958"
     rx="7.5639086"
     ry="7.5639048" />
  <ellipse
     style="fill:none;stroke:#ff0000;stroke-width:0.05;stroke-dasharray:none;stroke-opacity:1"
     id="path8"
     cx="78.644768"
     cy="134.47185"
     rx="0.73703998"
     ry="0.73703986" />
  <ellipse
     style="fill:none;stroke:#ff0000;stroke-width:0.05;stroke-dasharray:none;stroke-opacity:1"
     id="path8-2"
     cx="81.282555"
     cy="134.46379"
     rx="0.73703998"
     ry="0.73703986" />
</svg>
